<mxfile host="app.diagrams.net" modified="2024-02-02T10:25:08.951Z" agent="Mozilla/5.0 (Macintosh; Intel Mac OS X 10_15_7) AppleWebKit/537.36 (KHTML, like Gecko) Chrome/121.0.0.0 Safari/537.36" etag="d39f1fHrVgAC3PZEBRds" version="23.1.1" type="github">
  <diagram name="第 1 页" id="G22Xw83PZYiy6D8dXIj6">
    <mxGraphModel dx="1434" dy="762" grid="1" gridSize="10" guides="1" tooltips="1" connect="1" arrows="1" fold="1" page="1" pageScale="1" pageWidth="827" pageHeight="1169" math="0" shadow="0">
      <root>
        <mxCell id="0" />
        <mxCell id="1" parent="0" />
        <mxCell id="SYFAyWg3yGaJ7LErzSye-24" value="" style="group" vertex="1" connectable="0" parent="1">
          <mxGeometry x="180" y="200" width="880" height="40" as="geometry" />
        </mxCell>
        <mxCell id="SYFAyWg3yGaJ7LErzSye-2" value="0,0" style="rounded=0;whiteSpace=wrap;html=1;" vertex="1" parent="SYFAyWg3yGaJ7LErzSye-24">
          <mxGeometry width="40" height="40" as="geometry" />
        </mxCell>
        <mxCell id="SYFAyWg3yGaJ7LErzSye-3" value="" style="rounded=0;whiteSpace=wrap;html=1;fillColor=#fff2cc;strokeColor=#d6b656;" vertex="1" parent="SYFAyWg3yGaJ7LErzSye-24">
          <mxGeometry x="40" width="40" height="40" as="geometry" />
        </mxCell>
        <mxCell id="SYFAyWg3yGaJ7LErzSye-4" value="1,0" style="rounded=0;whiteSpace=wrap;html=1;" vertex="1" parent="SYFAyWg3yGaJ7LErzSye-24">
          <mxGeometry x="80" width="40" height="40" as="geometry" />
        </mxCell>
        <mxCell id="SYFAyWg3yGaJ7LErzSye-5" value="0,1" style="rounded=0;whiteSpace=wrap;html=1;" vertex="1" parent="SYFAyWg3yGaJ7LErzSye-24">
          <mxGeometry x="120" width="40" height="40" as="geometry" />
        </mxCell>
        <mxCell id="SYFAyWg3yGaJ7LErzSye-6" value="2,0" style="rounded=0;whiteSpace=wrap;html=1;" vertex="1" parent="SYFAyWg3yGaJ7LErzSye-24">
          <mxGeometry x="160" width="40" height="40" as="geometry" />
        </mxCell>
        <mxCell id="SYFAyWg3yGaJ7LErzSye-7" value="1,1" style="rounded=0;whiteSpace=wrap;html=1;" vertex="1" parent="SYFAyWg3yGaJ7LErzSye-24">
          <mxGeometry x="200" width="40" height="40" as="geometry" />
        </mxCell>
        <mxCell id="SYFAyWg3yGaJ7LErzSye-8" value="0,2&lt;br&gt;3,0" style="rounded=0;whiteSpace=wrap;html=1;fillColor=#f8cecc;strokeColor=#b85450;" vertex="1" parent="SYFAyWg3yGaJ7LErzSye-24">
          <mxGeometry x="240" width="40" height="40" as="geometry" />
        </mxCell>
        <mxCell id="SYFAyWg3yGaJ7LErzSye-9" value="2,1" style="rounded=0;whiteSpace=wrap;html=1;" vertex="1" parent="SYFAyWg3yGaJ7LErzSye-24">
          <mxGeometry x="280" width="40" height="40" as="geometry" />
        </mxCell>
        <mxCell id="SYFAyWg3yGaJ7LErzSye-10" value="1,2&lt;br&gt;4,0" style="rounded=0;whiteSpace=wrap;html=1;fillColor=#f8cecc;strokeColor=#b85450;" vertex="1" parent="SYFAyWg3yGaJ7LErzSye-24">
          <mxGeometry x="320" width="40" height="40" as="geometry" />
        </mxCell>
        <mxCell id="SYFAyWg3yGaJ7LErzSye-11" value="0,3&lt;br&gt;3,1" style="rounded=0;whiteSpace=wrap;html=1;fillColor=#f8cecc;strokeColor=#b85450;" vertex="1" parent="SYFAyWg3yGaJ7LErzSye-24">
          <mxGeometry x="360" width="40" height="40" as="geometry" />
        </mxCell>
        <mxCell id="SYFAyWg3yGaJ7LErzSye-12" value="2,2" style="rounded=0;whiteSpace=wrap;html=1;" vertex="1" parent="SYFAyWg3yGaJ7LErzSye-24">
          <mxGeometry x="400" width="40" height="40" as="geometry" />
        </mxCell>
        <mxCell id="SYFAyWg3yGaJ7LErzSye-13" value="1,3&lt;br&gt;4,1" style="rounded=0;whiteSpace=wrap;html=1;fillColor=#f8cecc;strokeColor=#b85450;" vertex="1" parent="SYFAyWg3yGaJ7LErzSye-24">
          <mxGeometry x="440" width="40" height="40" as="geometry" />
        </mxCell>
        <mxCell id="SYFAyWg3yGaJ7LErzSye-14" value="0,4&lt;br&gt;3,2" style="rounded=0;whiteSpace=wrap;html=1;fillColor=#f8cecc;strokeColor=#b85450;" vertex="1" parent="SYFAyWg3yGaJ7LErzSye-24">
          <mxGeometry x="480" width="40" height="40" as="geometry" />
        </mxCell>
        <mxCell id="SYFAyWg3yGaJ7LErzSye-15" value="2,3" style="rounded=0;whiteSpace=wrap;html=1;" vertex="1" parent="SYFAyWg3yGaJ7LErzSye-24">
          <mxGeometry x="520" width="40" height="40" as="geometry" />
        </mxCell>
        <mxCell id="SYFAyWg3yGaJ7LErzSye-16" value="1,4&lt;br&gt;4,2" style="rounded=0;whiteSpace=wrap;html=1;fillColor=#f8cecc;strokeColor=#b85450;" vertex="1" parent="SYFAyWg3yGaJ7LErzSye-24">
          <mxGeometry x="560" width="40" height="40" as="geometry" />
        </mxCell>
        <mxCell id="SYFAyWg3yGaJ7LErzSye-17" value="3,3" style="rounded=0;whiteSpace=wrap;html=1;" vertex="1" parent="SYFAyWg3yGaJ7LErzSye-24">
          <mxGeometry x="600" width="40" height="40" as="geometry" />
        </mxCell>
        <mxCell id="SYFAyWg3yGaJ7LErzSye-18" value="2,4" style="rounded=0;whiteSpace=wrap;html=1;" vertex="1" parent="SYFAyWg3yGaJ7LErzSye-24">
          <mxGeometry x="640" width="40" height="40" as="geometry" />
        </mxCell>
        <mxCell id="SYFAyWg3yGaJ7LErzSye-19" value="4,3" style="rounded=0;whiteSpace=wrap;html=1;" vertex="1" parent="SYFAyWg3yGaJ7LErzSye-24">
          <mxGeometry x="680" width="40" height="40" as="geometry" />
        </mxCell>
        <mxCell id="SYFAyWg3yGaJ7LErzSye-20" value="3,4" style="rounded=0;whiteSpace=wrap;html=1;" vertex="1" parent="SYFAyWg3yGaJ7LErzSye-24">
          <mxGeometry x="720" width="40" height="40" as="geometry" />
        </mxCell>
        <mxCell id="SYFAyWg3yGaJ7LErzSye-21" value="" style="rounded=0;whiteSpace=wrap;html=1;fillColor=#fff2cc;strokeColor=#d6b656;" vertex="1" parent="SYFAyWg3yGaJ7LErzSye-24">
          <mxGeometry x="760" width="40" height="40" as="geometry" />
        </mxCell>
        <mxCell id="SYFAyWg3yGaJ7LErzSye-22" value="4,4" style="rounded=0;whiteSpace=wrap;html=1;" vertex="1" parent="SYFAyWg3yGaJ7LErzSye-24">
          <mxGeometry x="800" width="40" height="40" as="geometry" />
        </mxCell>
      </root>
    </mxGraphModel>
  </diagram>
</mxfile>
